<?xml version="1.0" encoding="UTF-8" standalone="no"?>
<!-- Created with Inkscape (http://www.inkscape.org/) -->

<svg
   xmlns:dc="http://purl.org/dc/elements/1.1/"
   xmlns:cc="http://creativecommons.org/ns#"
   xmlns:rdf="http://www.w3.org/1999/02/22-rdf-syntax-ns#"
   xmlns:svg="http://www.w3.org/2000/svg"
   xmlns="http://www.w3.org/2000/svg"
   xmlns:sodipodi="http://sodipodi.sourceforge.net/DTD/sodipodi-0.dtd"
   xmlns:inkscape="http://www.inkscape.org/namespaces/inkscape"
   id="svg3355"
   version="1.1"
   inkscape:version="0.91 r13725"
   xml:space="preserve"
   width="1293.125"
   height="875"
   viewBox="0 0 2586.25 1750"
   sodipodi:docname="logo_for_white_shirt.svg"><metadata
     id="metadata3361"><rdf:RDF><cc:Work
         rdf:about=""><dc:format>image/svg+xml</dc:format><dc:type
           rdf:resource="http://purl.org/dc/dcmitype/StillImage" /><dc:title></dc:title></cc:Work></rdf:RDF></metadata><defs
     id="defs3359" /><sodipodi:namedview
     pagecolor="#ffffff"
     bordercolor="#666666"
     borderopacity="1"
     objecttolerance="10"
     gridtolerance="10"
     guidetolerance="10"
     inkscape:pageopacity="0"
     inkscape:pageshadow="2"
     inkscape:window-width="1366"
     inkscape:window-height="704"
     id="namedview3357"
     showgrid="false"
     inkscape:zoom="0.29428571"
     inkscape:cx="1021.2803"
     inkscape:cy="907.40495"
     inkscape:window-x="0"
     inkscape:window-y="27"
     inkscape:window-maximized="1"
     inkscape:current-layer="g3365" /><g
     id="g3363"
     inkscape:groupmode="layer"
     inkscape:label="ink_ext_XXXXXX"
     transform="matrix(1.25,0,0,-1.25,0,1750)"><g
       id="g3365"
       transform="scale(0.141036,0.141036)"
       style="stroke-width:31.76493945;stroke-miterlimit:4;stroke-dasharray:none"><path
         d="m 9858.51,154.465 c -262.81,34.508 -412.32,102.476 -609.77,277.191 -172.99,153.11 -260.1,314.551 -305.83,566.813 -12.93,71.511 -15.43,111.671 -15.48,251.711 l -0.09,166.62 146.36,1336.54 c 80.51,735.1 151.33,1368.44 157.37,1407.44 106.19,683.94 493,1081.2 1115.63,1145.7 118.1,12.25 358.8,4.86 459.9,-14.15 241.6,-45.31 408.8,-135.66 555.5,-300.26 162.1,-181.83 228.8,-316.08 270.4,-544.13 12.2,-66.89 14.9,-110.82 15.3,-244.62 0.3,-146.4 -2.7,-190.25 -29.6,-428.97 -16.4,-146.24 -31.4,-269.87 -33.1,-274.75 -2.5,-6.92 -82.6,-8.86 -368.2,-8.86 l -365,0 -2.1,37.22 -2.2,37.23 -43.7,2.1 c -26,1.25 -45,5.57 -46.9,10.72 -1.9,4.74 10.5,134.61 27.5,288.6 40.6,367.76 39.9,448.86 -4.7,552.39 -18.5,42.96 -38,58.52 -95.4,75.86 -52.7,15.9 -193.8,17.98 -251.6,3.71 -171.9,-42.46 -276.4,-168.51 -318.8,-384.77 -7.9,-40.46 -81.7,-692.55 -163.98,-1449.09 -134.49,-1236.8 -149.23,-1384.12 -146.1,-1460.62 4.38,-107.52 22.91,-172.22 56.59,-197.64 41.93,-31.637 112.47,-48.247 207.19,-48.86 204.4,-1.274 325.9,75.39 399.4,251.82 33,79.18 47.1,167.46 89.5,560.55 21.4,198.12 40.8,363.25 43.1,366.93 2.5,4.04 150.6,6.67 376,6.67 292.2,0 372,-1.88 372.7,-8.86 0.5,-4.87 0.2,-25.62 -0.7,-46.09 l -1.5,-37.22 36.3,0 c 26.4,0 37.5,-3.01 40.6,-11.05 2.3,-6.07 -2.8,-75.45 -11.4,-154.21 -8.6,-78.75 -26.7,-243.68 -40.2,-366.52 -38.3,-349.23 -80.6,-523.743 -173.5,-716.13 -64.5,-133.628 -123,-216.312 -226,-319.535 -177.3,-177.675 -368.7,-272.922 -642,-319.457 -111.4,-18.972 -362.7,-24.312 -471.49,-10.023 z m -6441.86,55.199 c -1.86,4.875 -2.54,21.633 -1.55,37.223 l 1.8,28.363 -46.09,3.543 c -42.88,3.297 -46.19,4.793 -47.83,21.273 -2.99,30.551 534.63,4942.414 541.77,4949.534 4.19,4.18 155.75,6.06 396.32,4.93 l 389.56,-1.83 2.1,-44.32 2.13,-44.31 35.32,0 c 22.73,0 36.64,-3.35 38.94,-9.36 1.97,-5.13 -45.62,-460.6 -105.75,-1012.16 -60.13,-551.52 -107.9,-1005.17 -106.19,-1008.1 1.72,-2.91 176.77,-5.32 388.97,-5.32 l 385.88,0 3.41,15.95 c 1.85,8.79 53.48,480.21 114.74,1047.6 61.27,567.43 113.97,1038.86 117.13,1047.66 l 5.76,16.02 399,-1.83 398.97,-1.83 2.11,-44.32 2.14,-44.31 34.67,0 c 19.08,0 36.7,-3.21 39.13,-7.17 5.54,-8.95 -526.88,-4918.154 -535.76,-4940.205 l -6.46,-16.004 -391.85,1.825 -391.88,1.828 0,70.906 -46.09,3.543 c -42.87,3.297 -46.19,4.793 -47.83,21.273 -0.97,9.747 47.39,467.61 107.43,1017.474 60.05,549.86 107.72,1002.15 105.92,1005.06 -1.8,2.93 -175.43,5.31 -385.87,5.31 l -382.64,0 -6.48,-15.95 c -3.54,-8.78 -56.36,-480.17 -117.32,-1047.6 C 4249.27,696.965 4196.51,225.539 4192.96,216.754 l -6.45,-15.953 -383.24,0 c -300.1,0 -383.99,1.941 -386.62,8.863 z M 6063.5,204.82 c -2.22,2.211 -0.92,15.285 2.88,29.02 10.91,39.558 5.31,44.953 -46.67,44.953 -25.23,0 -47.89,3.27 -50.35,7.262 -5.02,8.082 1320.47,4947.395 1331.41,4961.325 10.3,13.13 1141.64,12.96 1152.55,-0.17 4.13,-4.98 8.5,-24.92 9.72,-44.31 l 2.21,-35.29 31.77,-3.54 c 26.34,-2.94 32.65,-6.59 36.92,-21.27 8.39,-28.95 255.11,-4929.48 248.52,-4936.073 -3.35,-3.317 -179.75,-5.231 -392.07,-4.211 l -386.01,1.828 -3.8,28.363 c -5.51,41.32 -10.63,46.086 -49.38,46.086 -19.81,0 -36.92,3.746 -40.02,8.758 -2.97,4.812 -12.66,185.816 -21.55,402.207 -8.86,216.43 -17.7,397.542 -19.61,402.492 -5.01,13.11 -849.68,13.27 -859.96,0.16 -3.82,-4.87 -56.91,-202.625 -118.02,-439.457 -61.09,-236.832 -112.94,-435.449 -115.22,-441.375 -3.62,-9.445 -47.89,-10.777 -356.7,-10.777 -193.94,0 -354.41,1.828 -356.62,4.019 z m 1769.44,1667.54 c 4.95,8.51 -80.71,2060.97 -86.26,2066.68 -5.9,6.03 -540.83,-2057.79 -535.6,-2066.26 4.49,-7.24 617.65,-7.65 621.86,-0.42 z M 11528,209.664 c -1.8,4.875 -2.5,21.633 -1.5,37.223 l 1.8,28.363 -46.1,3.543 c -42.9,3.297 -46.2,4.793 -47.8,21.273 -3,30.551 534.6,4942.414 541.8,4949.534 4.1,4.18 155.7,6.06 396.3,4.93 l 389.5,-1.83 2.1,-44.32 2.2,-44.31 35.3,0 c 22.7,0 36.6,-3.35 38.9,-9.34 3,-7.86 -181.8,-1743.46 -191.7,-1800.48 -1.9,-10.71 -0.7,-19.5 2.6,-19.5 3.3,0 255.8,429.94 561,955.43 305.3,525.5 558.5,957.78 562.8,960.64 12.7,8.44 782.7,6.61 787.9,-1.89 2.5,-4.01 -3.7,-21.32 -13.7,-38.47 -10.1,-17.14 -18.3,-34.62 -18.3,-38.77 0,-4.76 20.3,-7.62 54,-7.62 48.6,0 53.7,-1.27 50.6,-12.82 -1.8,-7.04 -297.3,-503.2 -656.6,-1102.55 -359.4,-599.37 -653.4,-1094.28 -653.4,-1099.84 0,-5.55 173.9,-619.75 386.4,-1364.9 212.6,-745.159 386.5,-1361.222 386.5,-1369.007 0,-13.984 -5,-14.152 -396.8,-14.152 l -396.8,0 -8.6,30.133 c -11.9,41.742 -18.2,47.859 -48.7,47.859 -14.6,0 -29.9,4.02 -34,8.922 -4.1,4.906 -114.7,399.746 -245.8,877.435 -271.6,989.05 -252.6,921.69 -259.2,921.69 -7,0 -227,-344.41 -234.7,-367.48 -3.5,-10.41 -41.7,-349.17 -84.8,-752.797 -43.1,-403.622 -81.3,-741.024 -84.9,-749.809 l -6.4,-15.953 -383.2,0 c -300.1,0 -384,1.941 -386.7,8.863 z M 1598.21,3998.34 c -13.65,1.58 -55.11,6.32 -92.17,10.55 -180.88,20.64 -382.85,80.74 -555.767,165.35 -297.796,145.74 -501.308,325.41 -667.382,589.22 -277.62928,440.99 -272.3676,1026.33 13.105,1457.08 115.856,174.79 267.852,307.68 462.008,403.84 269.026,133.28 517.376,176.51 753.876,131.26 138.99,-26.59 223,-71.1 292.57,-155.05 104.94,-126.6 138.26,-282.92 91.89,-431.16 -28.14,-89.89 -102.69,-180.75 -204.7,-249.4 -48.59,-32.69 -94.14,-48.98 -211.55,-75.59 -86.28,-19.55 -107.1,-21.83 -172.58,-18.8 -125.85,5.81 -205.01,44.89 -301.72,149 -61.856,66.56 -57.259,66.7 -116.614,-3.74 -46,-54.59 -83.086,-119.31 -116.543,-203.4 -138.684,-348.51 -57.332,-780.91 193.625,-1029.11 129.292,-127.84 289.682,-212.76 483.922,-256.24 64.23,-14.35 92.09,-16.43 218.94,-16.21 164.93,0.31 233.76,9.98 352.06,49.36 127.6,42.48 250.46,113.75 375.28,217.67 194.71,162.14 337.38,403.32 400.86,677.63 23.18,100.18 26.28,289.1 6.93,422.4 -41.94,288.88 -131.57,534.8 -360.89,990.21 -152.47,302.77 -187.79,378.07 -252.85,538.88 -157.43,389.16 -232.68,786.37 -202.9,1070.98 22.43,214.57 101.34,464.53 204.67,648.43 86.36,153.7 201.97,287.64 334.28,387.27 144.24,108.59 398.06,214.15 596.56,248.07 123.06,21.05 329.78,16.26 456.97,-10.55 311.89,-65.81 607.72,-218.47 803.87,-414.9 184.82,-185.07 304.86,-397.48 353.02,-624.68 19.45,-91.72 17.7,-266.22 -3.48,-350.97 -30.8,-123.17 -98.13,-234.2 -179.23,-295.6 -53.15,-40.25 -82.15,-51.83 -195.21,-78.03 -196.06,-45.42 -324.36,-22.18 -458.19,82.95 -116.68,91.71 -173.29,219.56 -166.4,375.76 4.21,94.71 20.55,146.22 69.77,219.81 62.71,93.73 140.45,152.86 242.62,184.52 22.8,7.06 43.04,17.03 45.02,22.19 4.67,12.18 -40.06,93.16 -80.55,145.79 -132.15,171.75 -467.22,319.03 -702.53,308.85 -67.89,-2.94 -76.53,-5.07 -131.17,-32.35 -157.27,-78.44 -259.83,-216.4 -310.24,-417.28 -76.99,-306.91 -31.98,-464.51 348.04,-1218.56 338.82,-672.28 395.74,-805.16 471.57,-1101.08 59.49,-232.16 77.44,-389.06 71.76,-627.66 -8.09,-340.21 -67.97,-575.94 -219.16,-862.79 -110.85,-210.27 -235.32,-380.78 -373.25,-511.31 -276.66,-261.82 -641.26,-424.56 -1110.81,-495.83 -74.2,-11.27 -141.33,-15.65 -265.88,-17.33 -91.66,-1.25 -177.79,-1 -191.45,0.58 l 0,-0.03 z m 7203.83,1531.77 c -248.16,31.55 -409.72,128.99 -541.11,326.35 -68.88,103.47 -98.4,170.34 -150.91,341.78 -1.84,5.93 -34.49,-20.72 -85.59,-69.85 -140.87,-135.41 -288.22,-253.12 -451.43,-360.61 -149.89,-98.71 -256.97,-147.43 -405.29,-184.41 -159.7,-39.8 -211.52,-47.06 -336.79,-47.06 -100.9,0 -123.84,2.16 -166.71,15.65 -62.09,19.56 -111.34,51.68 -137.46,89.74 -29.72,43.32 -56.11,123.5 -65.09,197.75 -4.34,36.07 -9.02,66.75 -10.41,68.17 -2.94,3.04 -13.57,-4.99 -103.28,-78.11 -129.59,-105.66 -296.33,-204.37 -403.35,-238.86 -113.36,-36.53 -213.1,-54.36 -301.34,-53.83 -97.88,0.55 -144.55,13.09 -224.92,60.45 -111.05,65.43 -213.93,196.07 -253.54,321.92 -4.94,15.6 -11.47,31.11 -14.54,34.49 -3.1,3.35 -35.43,-19.28 -71.82,-50.33 -151.95,-129.54 -326.16,-244.42 -433.9,-286.14 -135.99,-52.62 -322.83,-88.02 -435.92,-82.56 -97.69,4.74 -135.8,18.31 -182.13,64.95 -82.6,83.12 -96.25,228.47 -41.83,445.2 25.24,100.49 61.77,203.27 381.08,1072.67 37.26,101.4 126.66,347.07 198.7,545.96 112.17,309.7 162.33,450.79 294.97,829.57 l 19.86,56.72 47.5,2.11 c 44.21,1.97 48.33,3.57 59.38,23.02 l 11.88,20.88 257.25,0.02 c 200.61,0.06 258.02,-1.9 260.68,-8.88 1.89,-4.93 -32.62,-118.32 -76.71,-252.01 -44.13,-133.67 -78.72,-244.52 -76.95,-246.32 1.8,-1.77 98.55,-3.24 215.01,-3.24 166.85,0 212.49,-1.93 215.29,-9.19 2.69,-7.04 -78.63,-254.92 -106.91,-325.82 -4.12,-10.36 -14.21,-12.41 -60.66,-12.41 -48.3,0 -56.72,-1.88 -63.23,-14.04 -7.12,-13.3 -16.31,-14.16 -171.78,-15.96 l -164.21,-1.91 -140.42,-411.24 c -311.59,-912.5 -402.88,-1189 -402.88,-1220.48 0,-29.48 1,-30.98 20.69,-30.98 42.44,0 208.09,130.24 352.94,277.5 l 72.29,73.48 11.41,67.36 c 26.98,159.28 77.33,322.64 151.8,492.44 53.18,121.32 92.07,192.81 165,303.23 273.34,414.1 583.18,655.34 995.01,774.68 128.04,37.11 270.43,39.52 396.97,6.76 62.18,-16.09 163.63,-67.61 214.54,-108.87 24.38,-19.78 47.28,-35.99 50.86,-35.99 3.6,0 13.98,13.57 23.12,30.14 16.48,29.94 16.89,30.16 60.55,32.24 39.47,1.89 45.48,4.24 58.88,23.04 l 14.9,20.94 332.36,0 c 215.15,0 333.89,-2.52 336.74,-7.12 6.32,-10.19 -49,-189.08 -154.52,-499.84 -50.32,-148.18 -163.24,-484.26 -250.93,-746.82 -132.36,-396.39 -159.62,-484.8 -160.62,-521.14 -1.13,-41.46 -0.27,-43.9 16.23,-46.22 29.34,-4.13 67.11,11.43 133.28,54.86 86.42,56.75 181,139.82 388.95,341.59 l 176.48,171.22 18.83,91.01 c 74.84,361.97 253.71,661.18 516.39,863.89 316.96,244.59 809.9,350.48 1115.37,239.61 74.62,-27.09 124,-60.11 192.88,-128.99 70.87,-70.88 102.97,-119.84 131.67,-200.89 28.4,-80.36 37.5,-149.83 33.1,-254.44 -8.2,-198.31 -80.7,-362.98 -216.83,-492.68 -63.85,-60.79 -121.7,-93.47 -185.44,-104.72 -25.34,-4.45 -61.81,-12.71 -81.04,-18.3 -69.66,-20.3 -161.36,-8.2 -233.65,30.82 -94.63,51.05 -181.11,180.06 -164.65,245.62 2.74,10.96 28.94,43.95 58.21,73.31 29.28,29.39 67.47,73.37 84.89,97.77 37.98,53.21 83.06,148.26 95.25,200.75 19.11,82.31 -6.78,166.32 -62.51,202.74 -44.12,28.86 -60.57,29.55 -100.2,4.09 -114.48,-73.45 -276.75,-323.32 -346.75,-533.93 -34.33,-103.31 -47.02,-171.66 -57.96,-311.98 -14.04,-180.55 7.34,-332.69 63.03,-448.36 37.68,-78.21 74.67,-117.7 141.04,-150.5 l 54.15,-26.76 110.26,0.23 c 101.89,0.22 114.52,1.72 166.95,19.97 166.21,57.74 327.9,178.23 576.65,429.54 158.3,160.01 173.8,178.24 363.5,427.48 109,143.19 199.9,264.92 202,270.51 2.2,5.6 -2.6,31.3 -10.5,57.11 -31.5,101.81 -26.2,197.06 18.4,330.23 61.7,184.74 180.2,366.21 313,479.49 95.6,81.59 160.9,115.61 341.5,177.79 49.7,17.12 143.7,14.95 191.4,-4.41 98.1,-39.83 148.9,-105.19 148.9,-191.75 0,-153.04 -149.5,-421.48 -376,-675.1 -23.3,-26.04 -42.3,-49.97 -42.3,-53.18 0,-3.19 20,-18.58 44.3,-34.18 186.9,-119.93 313.2,-243.06 425.3,-414.79 114.2,-174.93 174.8,-342.69 176.1,-488.07 0.3,-29.88 2.9,-60.4 5.8,-67.86 6.2,-15.81 -4.3,-24.67 263.1,223.47 95.6,88.65 189.7,173.79 209.2,189.16 38.9,30.69 103.4,68.08 131.2,76.09 9.7,2.79 45.5,15.86 79.6,29.05 111,43.04 178.4,29 197.2,-41.13 14.4,-53.42 -5,-114.42 -60.1,-188.89 -45.7,-61.82 -406.3,-421.11 -514.5,-512.69 -158.2,-133.84 -389.7,-302.32 -533.6,-388.34 -263.4,-157.52 -556.1,-241.99 -839,-242.18 -205,-0.15 -327.1,43.78 -435.5,156.67 -53.1,55.31 -86.4,107.42 -112,175.27 -15.5,40.91 -18.1,59.57 -18.3,129.34 -0.3,68.66 2.2,87.99 15.9,122.34 32.2,81.1 93.2,136.66 181.8,165.68 19.5,6.4 54.6,19.55 78,29.3 77.3,32.13 207,46.59 267.4,29.81 82.2,-22.82 107.4,-106.61 77.2,-255.95 -28.3,-139.59 -37.3,-207.97 -29.8,-227.58 8.9,-23.38 33.8,-40.22 67.6,-45.7 33.9,-5.49 51.7,11.13 81.7,76.22 39.8,86.35 51.9,166.76 47.8,318.59 -3.8,143.83 -17.1,233.91 -57.8,392.53 -25.2,98.62 -72,233.12 -101.1,290.87 -14.5,28.85 -18.9,32.98 -26.5,24.81 -5.1,-5.4 -67.5,-84.78 -138.9,-176.43 -288.5,-370.61 -490.9,-585.29 -744.23,-789.27 -163.38,-131.59 -387.95,-267.05 -547.5,-330.26 -58.09,-23.01 -182.36,-56.08 -282.07,-75.06 -60.49,-11.52 -208.87,-19.33 -255.26,-13.43 z m -2712.07,540.92 c 169.21,114.86 380.39,367.92 552.86,662.56 58.99,100.77 154.44,301.15 183.74,385.71 50.79,146.65 59.47,268.74 25.54,359.77 -30.97,83.07 -117.27,145.36 -201.45,145.36 -83.05,0 -238.46,-148.12 -362.66,-345.6 -144.37,-229.58 -300.81,-612.68 -369.89,-905.85 -22.4,-95.11 -27.25,-249.1 -8.94,-283.59 13.87,-26.11 58.19,-45.75 103.64,-45.94 30.64,-0.15 42.62,4.15 77.16,27.58 z"
         style="fill:#d7d0c2;fill-opacity:1;fill-rule:nonzero;stroke:none;stroke-width:31.76493945;stroke-miterlimit:4;stroke-dasharray:none"
         id="path3369"
         inkscape:connector-curvature="0" /><path
         d="m 9773.43,240.023 c -243.73,30.461 -415.15,103.25 -553.97,235.25 -162.38,154.418 -247.99,345.934 -276.19,617.837 -17.61,169.72 -11.02,245.73 145.22,1677.95 80.42,737.05 152.6,1378.39 160.44,1425.17 43.68,261.27 135.58,487.52 269.18,662.82 56.37,73.94 177.16,188.22 250.61,237.08 233.18,155.18 547.98,228.33 873.28,202.96 230.9,-17.98 399.9,-69.52 545.1,-166.18 60.6,-40.33 176.3,-153.8 216.3,-212.13 35.7,-52.01 90.1,-171.17 110.7,-242.4 38,-131.34 48.2,-212.85 48.6,-389.97 0.3,-146.41 -2.7,-190.25 -29.6,-428.97 -16.4,-146.24 -31.3,-269.88 -33.1,-274.76 -2.5,-6.91 -80.8,-8.83 -359.7,-8.75 -196,0.06 -360.5,2.64 -365.3,5.71 -6.9,4.41 -1.8,69.24 23.6,299.49 34.3,310.73 37,395.95 14.7,478.21 -30.9,114.47 -96.7,183.94 -206.6,218.14 -59.7,18.58 -195.6,21.82 -259,6.18 -171.9,-42.46 -276.3,-168.52 -318.8,-384.77 -20.6,-105.19 -312.22,-2800.12 -312.06,-2884.21 0.37,-199.3 80.77,-322.219 234.45,-358.45 58.11,-13.675 179.71,-13.792 244.01,-0.218 156.4,32.984 264.4,149.868 311.5,337.128 11.8,46.66 29.8,185.84 57.8,446.69 31.7,294.92 43.1,380.89 51.6,387.78 8.3,6.84 90.4,8.86 356.3,8.86 190,0 350.4,-1.88 356.4,-4.18 13.3,-5.12 13.6,-0.74 -28.1,-392.88 -44.6,-419.63 -57.6,-496.18 -113.6,-666.49 -69.2,-210.389 -161.4,-365.291 -300.1,-503.889 -172.1,-172.027 -357.7,-267.195 -613.8,-314.664 -141.4,-26.199 -355.79,-32.351 -499.87,-14.344 z m -6435.82,57.356 c -6.04,15.73 529.34,4931.831 538.28,4942.911 10.14,12.52 753.63,12.96 761.38,0.48 2.86,-4.64 4.41,-26.18 3.47,-47.87 -0.94,-21.72 -51.02,-492.5 -111.26,-1046.22 -60.21,-553.72 -107.96,-1010.77 -106.08,-1015.7 4.35,-11.27 872.48,-13.29 879.43,-2.02 2.36,3.8 55.56,478.42 118.21,1054.7 62.67,576.25 117.16,1051.76 121.12,1056.63 10.22,12.68 767.81,12.96 775.62,0.3 2.93,-4.73 4.65,-23.07 3.82,-40.77 C 6318.39,5130 5794.28,316.797 5788.27,301.836 l -6.43,-15.953 -386.78,0 c -350.17,0 -387.23,1.086 -391.22,11.496 -2.43,6.344 43.9,457.023 102.92,1001.511 59.05,544.52 108.19,1017.15 109.24,1050.29 l 1.86,60.27 -434.4,1.83 -434.42,1.83 -6.51,-16.01 c -3.58,-8.8 -56.39,-480.23 -117.36,-1047.66 C 4164.19,782.047 4111.42,310.621 4107.88,301.836 l -6.45,-15.953 -379.7,0 c -343.63,0 -380.14,1.113 -384.12,11.496 z m 2650.64,-5.207 c -7.62,4.824 125.01,506.523 654.5,2476.038 365.23,1358.48 667.85,2472.41 672.5,2475.35 10.89,6.92 1111.97,7.09 1122.45,0.17 4.45,-2.96 11.46,-49.66 16.2,-108.02 12.46,-154.16 249.9,-4829.882 245.78,-4840.573 -5.1,-13.293 -764.41,-13.657 -775.23,-0.391 -4.22,5.211 -13.57,166.93 -22.64,391.746 -8.47,210.582 -17.58,408.418 -20.24,439.598 l -4.82,56.73 -472.37,1.83 c -372.64,1.44 -473.84,-0.09 -479.32,-7.1 -3.82,-4.89 -56.95,-202.679 -118.08,-439.484 -61.09,-236.839 -112.96,-435.449 -115.24,-441.375 -3.62,-9.472 -46.8,-10.777 -349.03,-10.695 -189.7,0.086 -349.2,2.824 -354.46,6.176 z M 7844.81,1904.27 c -0.08,42.15 -77.91,1921.05 -93.22,2249.42 -6.76,144.77 -12.99,187.48 -22.68,154.94 -32.11,-107.97 -628.2,-2436.43 -625.04,-2441.53 2.88,-4.65 133.39,-7.15 372.69,-7.15 l 368.28,0 -0.05,44.32 0.02,0 z M 11449,297.379 c -6,15.73 529.3,4931.831 538.3,4942.911 10.1,12.52 753.6,12.96 761.4,0.48 2.8,-4.64 4.4,-26.18 3.4,-47.87 -0.9,-21.72 -50.9,-492.03 -111.1,-1045.19 -60.2,-553.14 -109.4,-1010.46 -109.4,-1016.28 0,-5.82 3.1,-9.5 7,-8.2 9.4,3.13 24.6,29.08 671.3,1140.36 307.4,528.4 564.5,966.31 571.4,973.12 11.5,11.53 39.2,12.44 380.5,12.44 202.5,0 373.1,-1.9 379.3,-4.26 9.4,-3.6 7,-11.77 -14.9,-51.41 -14.3,-25.93 -309.7,-520.92 -656.4,-1100 -551.7,-921.26 -630,-1055.56 -626.6,-1074.2 2.2,-11.74 177.6,-629.13 389.8,-1372.04 212.2,-742.885 384.4,-1353.103 382.8,-1356.037 -4.3,-7.281 -776.4,-6.558 -787.9,0.75 -5.1,3.211 -119.2,406.012 -253.5,895.047 -134.4,489.07 -250.5,908.35 -258,931.75 -7.5,23.4 -18.7,60.91 -25,83.31 -6.2,22.43 -15.2,40.69 -20,40.58 -8.3,-0.16 -262,-391.19 -279.5,-430.8 -4.7,-10.58 -44,-351.08 -87.3,-756.65 -43.4,-405.561 -81.8,-744.569 -85.3,-753.354 l -6.5,-15.953 -379.7,0 c -343.6,0 -380.1,1.113 -384.1,11.496 z M 1722.3,4030.39 c -238.25,17.94 -441.38,72.81 -652.32,176.2 -294.386,144.3 -482.726,306.52 -650.734,560.41 -230.406,348.24 -287.023,785.9 -153.547,1186.9 134.766,404.79 445.578,696.71 839.731,788.72 46.51,10.86 85.48,13.24 216.26,13.24 163.8,0 186.12,-2.63 283.61,-33.48 66.34,-20.97 105.45,-42.21 147.77,-80.27 166.84,-150.04 203.35,-393.41 85.47,-569.92 -50.05,-74.92 -148.95,-153.91 -232.18,-185.4 -124.22,-46.97 -248.91,-41.05 -359,17.09 -45.96,24.26 -135.78,108.91 -173.08,163.13 -12.47,18.15 -26.53,33.02 -31.22,33.02 -17.09,0.08 -123.693,-78.52 -151.251,-111.48 C 692.227,5749.66 638.191,5358.59 761.633,5046.66 853.477,4814.64 984.457,4670.43 1206,4557.4 c 256.89,-131.09 609.05,-138.93 910.67,-20.25 253.84,99.87 469.13,263.53 602.16,457.8 88.8,129.65 163.69,307.91 199.14,474 22.52,105.5 22.6,290.6 0.19,421.88 -53.37,312.56 -139.86,540.23 -400.99,1055.61 -133.28,263.04 -190.33,390.33 -257.39,574.35 -85.64,234.9 -137.1,461.15 -158.62,697.05 -30.86,338.51 91.73,760.55 305.59,1051.86 54.75,74.62 177.36,195.68 252.92,249.72 119.67,85.61 276.11,151.56 436.78,184.13 111.92,22.68 323.3,22.83 448.07,0.25 346.94,-62.74 679.43,-241.46 889.68,-478.24 255.51,-287.74 360.92,-627.44 286.69,-924 -5.84,-23.4 -26.84,-75.47 -46.64,-115.74 -61.98,-126.05 -150.12,-198.87 -271.79,-224.51 -131.94,-27.84 -257.74,2.24 -374.12,89.38 -182.61,136.77 -234.87,391.35 -120.63,587.56 56,96.16 178.84,192.05 260.27,203.21 51.99,7.15 53.27,10.3 25.79,63.67 -82.87,160.92 -247.2,285.17 -480.21,363.1 -175.65,58.78 -358.34,61.36 -503.75,7.07 -58.77,-21.93 -136.02,-77.05 -193.52,-138.09 -82.37,-87.41 -123.41,-166.88 -158.86,-307.55 -53.91,-213.71 -38.39,-356.84 67.41,-622.05 62.34,-156.29 115.86,-268.77 341.56,-717.9 223.7,-445.17 284.44,-576.95 338.06,-733.27 143.94,-419.72 180.2,-756.62 123.67,-1149.23 -34.76,-241.45 -139.79,-508.23 -297.24,-755.12 -82.43,-129.2 -127.44,-187.11 -219.61,-282.59 -366.79,-379.94 -923.89,-581.66 -1488.98,-539.11 z m 2554.09,1538.03 c -85.48,13.46 -141.29,52.67 -174.75,122.83 -40.71,85.42 -44.09,165.38 -13.82,328.65 17.45,94.14 67.87,244.34 229.2,682.78 222.9,605.87 472.87,1295.27 577.14,1591.79 46.62,132.59 89.91,253.04 96.19,267.66 l 11.45,26.59 251.62,0 c 239.63,0 251.6,-0.61 251.6,-13.04 0,-7.17 -35.09,-119.37 -78,-249.3 -42.9,-129.93 -77.99,-238.92 -77.99,-242.21 0,-3.27 97.33,-5.96 216.26,-5.96 206.75,0 216.25,-0.58 216.25,-13.29 0,-7.31 -23.54,-81.51 -52.29,-164.85 l -52.32,-151.56 -69.99,-4.48 c -38.49,-2.47 -139.18,-4.85 -223.71,-5.32 l -153.71,-0.83 -13.93,-37.23 c -19.67,-52.6 -467.88,-1370.55 -507.11,-1491.16 -39.41,-121.09 -44.78,-150.65 -30.82,-169.37 10,-13.44 11.47,-13.49 54.2,-1.61 110.29,30.67 229.97,114.94 400.91,282.32 l 113.44,111.09 12.53,77.85 c 62.2,386.87 286.13,816.37 586.23,1124.33 284.58,292.06 599.97,441.51 876.46,415.37 97.58,-9.22 152.39,-24.16 233.57,-63.62 76.89,-37.37 153.38,-98.22 198.92,-158.18 14.31,-18.86 28.47,-31.63 31.44,-28.37 2.98,3.27 13.82,31.53 24.06,62.83 10.28,31.3 29.89,73.56 43.62,93.94 l 24.96,37.06 653.78,0 -3.99,-24.65 c -6.83,-42.07 -87.05,-291.01 -203.4,-631.21 -241.44,-705.83 -356.54,-1061 -360.14,-1111.22 -3.33,-46.12 -2.82,-47.92 14.9,-54.64 33.51,-12.75 135.74,21.57 224.62,75.38 107.32,64.98 186.73,133.64 441.74,381.89 l 161.63,157.37 17.09,84.17 c 42.08,206.95 112.4,381.3 221.19,548.18 103.47,158.75 258.03,308.04 421.9,407.53 105.64,64.14 278.25,120.56 424.99,138.92 95.27,11.94 320.62,5.77 381.85,-10.47 198.25,-52.48 351.74,-208.42 401.54,-407.95 20.8,-83.55 17.7,-250.34 -6.6,-341.8 -74.68,-282.25 -291.02,-478.13 -479.52,-434.15 -132.04,30.81 -255.76,157.35 -255.76,261.63 0,36.11 0.58,37.06 58.58,96.38 158.98,162.61 225.18,352.69 158.12,454.04 -75.56,114.17 -235.39,81.31 -368.09,-75.65 -119.15,-140.94 -227.5,-352.57 -274.25,-535.68 -17.23,-67.47 -35.04,-226.14 -35.15,-313.11 -0.24,-200.86 49.83,-371.3 134.27,-457.11 168.49,-171.14 513.98,-97.24 872.48,186.65 33.16,26.23 139.12,127.27 235.52,224.48 168.9,170.48 181.9,185.57 361.6,422.13 102.5,134.91 191.9,253.7 198.6,263.96 11.7,17.8 11.6,20.32 -2.7,57.21 -18.7,48.14 -25.5,161.83 -13.7,229.55 19.1,109.54 81.3,257.36 156.9,372.75 108.6,165.76 227.6,274.42 365.5,333.85 52.5,22.64 61.1,24.15 134.1,24.18 66.1,0 83.3,-2.43 112.9,-16.09 54.8,-25.29 96,-63.17 115.9,-106.66 15.4,-33.54 17.2,-45.42 13.9,-89.45 -11.8,-155.64 -139.4,-380.59 -362.8,-639.64 -33.2,-38.44 -60.4,-72.06 -60.5,-74.69 -0.1,-2.66 19.7,-16.93 44.1,-31.69 82,-49.77 206.9,-149.23 272.1,-216.7 147.4,-152.58 266.6,-354.05 312,-527.41 15.1,-57.38 19.1,-92.03 22.1,-189.03 2,-65.31 5.3,-118.76 7.3,-118.76 11.7,0 156.3,127.68 376.5,332.36 98.9,91.98 197.8,181.31 219.8,198.5 60.4,47.28 136.9,81.43 190.2,84.81 42.9,2.75 45.3,2 69.4,-22.1 23.3,-23.35 24.9,-27.81 24.9,-70.57 0,-70.99 -25.8,-114.8 -138.2,-235.03 -133,-142.23 -356.8,-359.13 -458.5,-444.31 -307.3,-257.48 -616.1,-447.78 -853.3,-525.86 -146.8,-48.3 -214.7,-58.83 -375.8,-58.27 -115.8,0.41 -142.6,2.66 -191,16.01 -100.7,27.77 -155.4,59.96 -231,135.65 -90.1,90.3 -127.3,160.2 -142.2,267.17 -13.2,94.75 18.8,205.23 76.1,262.53 55.9,55.84 156,88.99 271.9,89.99 93,0.8 122.7,-10.88 142.8,-56.31 23.6,-53.34 23.5,-101.65 -0.5,-225.25 -31,-159.43 -33,-181.75 -18.6,-209.5 16.7,-32.4 52.1,-45.76 110.3,-41.57 25.4,1.8 55.9,8.33 67.8,14.48 103.7,53.62 158.6,243.32 138.8,479.46 -14.5,173.74 -51.7,343.94 -110.6,506.38 -38.1,105.14 -92.4,224.65 -102.1,224.65 -8,0 -29.8,-26.59 -226.9,-276.53 -310.3,-393.62 -515.6,-610.43 -766.8,-809.52 -181.69,-144.05 -410.08,-276.44 -570.78,-330.9 -120.28,-40.74 -198.8,-52.59 -322.61,-48.66 -176.45,5.6 -301.2,46.48 -423.17,138.74 -149.07,112.7 -277.95,331.75 -325.55,553.21 -6.79,31.64 -14.9,57.53 -18,57.53 -3.08,0 -60.78,-53.92 -128.19,-119.82 -148.95,-145.62 -227.2,-213.9 -354.68,-309.45 -304.37,-228.14 -522.03,-317.38 -774.71,-317.6 -148.6,-0.11 -227.26,25.51 -288.96,94.11 -55.81,62.07 -83.29,159.62 -83.29,295.67 0,44.31 -2.52,80.56 -5.56,80.56 -3.07,0 -21.44,-16.3 -40.77,-36.28 -99.6,-102.64 -293.18,-251.68 -425.62,-327.68 -262.89,-150.83 -489.43,-139.2 -666.69,34.26 -81.12,79.41 -142.03,185.96 -169.97,297.39 -5.93,23.62 -12.33,47.38 -14.18,52.78 -2.33,6.73 -17.57,-3.38 -48.09,-31.9 -160.97,-150.43 -370.97,-306.08 -500.98,-371.36 -133.33,-66.94 -313.91,-102.84 -427.44,-84.97 l 0.03,0 z m 1787.85,470.97 c 183.39,48.81 428.81,298.41 659.16,670.38 65.8,106.22 171.72,316.44 209,414.79 95.5,251.9 70.38,438.61 -68.19,506.83 -62.48,30.77 -118.76,34.86 -195.07,14.25 -78.6,-21.24 -143.8,-64.75 -224.65,-149.92 -140.06,-147.59 -259.44,-349.53 -372.13,-629.6 -124.36,-309.04 -184.85,-528.93 -186.34,-677.49 -0.97,-96.64 16.56,-128.87 81.06,-149.01 39.78,-12.41 51.3,-12.43 97.16,-0.23 z"
         style="fill:#6a8c9c;fill-opacity:1;fill-rule:nonzero;stroke:none;stroke-width:31.76493945;stroke-miterlimit:4;stroke-dasharray:none"
         id="path3371"
         inkscape:connector-curvature="0" /><path
         d="m 9773.43,240.023 c -243.73,30.461 -415.15,103.25 -553.97,235.25 -162.38,154.418 -247.99,345.934 -276.19,617.837 -17.61,169.72 -11.02,245.73 145.22,1677.95 80.42,737.05 152.6,1378.39 160.44,1425.17 43.68,261.27 135.58,487.52 269.18,662.82 56.37,73.94 177.16,188.22 250.61,237.08 233.18,155.18 547.98,228.33 873.28,202.96 230.9,-17.98 399.9,-69.52 545.1,-166.18 60.6,-40.33 176.3,-153.8 216.3,-212.13 35.7,-52.01 90.1,-171.17 110.7,-242.4 38,-131.34 48.2,-212.85 48.6,-389.97 0.3,-146.41 -2.7,-190.25 -29.6,-428.97 -16.4,-146.24 -31.3,-269.88 -33.1,-274.76 -2.5,-6.91 -80.8,-8.83 -359.7,-8.75 -196,0.06 -360.5,2.64 -365.3,5.71 -6.9,4.41 -1.8,69.24 23.6,299.49 34.3,310.73 37,395.95 14.7,478.21 -30.9,114.47 -96.7,183.94 -206.6,218.14 -59.7,18.58 -195.6,21.82 -259,6.18 -171.9,-42.46 -276.3,-168.52 -318.8,-384.77 -20.6,-105.19 -312.22,-2800.12 -312.06,-2884.21 0.37,-199.3 80.77,-322.219 234.45,-358.45 58.11,-13.675 179.71,-13.792 244.01,-0.218 156.4,32.984 264.4,149.868 311.5,337.128 11.8,46.66 29.8,185.84 57.8,446.69 31.7,294.92 43.1,380.89 51.6,387.78 8.3,6.84 90.4,8.86 356.3,8.86 190,0 350.4,-1.88 356.4,-4.18 13.3,-5.12 13.6,-0.74 -28.1,-392.88 -44.6,-419.63 -57.6,-496.18 -113.6,-666.49 -69.2,-210.389 -161.4,-365.291 -300.1,-503.889 -172.1,-172.027 -357.7,-267.195 -613.8,-314.664 -141.4,-26.199 -355.79,-32.351 -499.87,-14.344 z m -6435.82,57.356 c -6.04,15.73 529.34,4931.831 538.28,4942.911 10.14,12.52 753.63,12.96 761.38,0.48 2.86,-4.64 4.41,-26.18 3.47,-47.87 -0.94,-21.72 -51.02,-492.5 -111.26,-1046.22 -60.21,-553.72 -107.96,-1010.77 -106.08,-1015.7 4.35,-11.27 872.48,-13.29 879.43,-2.02 2.36,3.8 55.56,478.42 118.21,1054.7 62.67,576.25 117.16,1051.76 121.12,1056.63 10.22,12.68 767.81,12.96 775.62,0.3 2.93,-4.73 4.65,-23.07 3.82,-40.77 C 6318.39,5130 5794.28,316.797 5788.27,301.836 l -6.43,-15.953 -386.78,0 c -350.17,0 -387.23,1.086 -391.22,11.496 -2.43,6.344 43.9,457.023 102.92,1001.511 59.05,544.52 108.19,1017.15 109.24,1050.29 l 1.86,60.27 -434.4,1.83 -434.42,1.83 -6.51,-16.01 c -3.58,-8.8 -56.39,-480.23 -117.36,-1047.66 C 4164.19,782.047 4111.42,310.621 4107.88,301.836 l -6.45,-15.953 -379.7,0 c -343.63,0 -380.14,1.113 -384.12,11.496 z m 2650.64,-5.207 c -7.62,4.824 125.01,506.523 654.5,2476.038 365.23,1358.48 667.85,2472.41 672.5,2475.35 10.89,6.92 1111.97,7.09 1122.45,0.17 4.45,-2.96 11.46,-49.66 16.2,-108.02 12.46,-154.16 249.9,-4829.882 245.78,-4840.573 -5.1,-13.293 -764.41,-13.657 -775.23,-0.391 -4.22,5.211 -13.57,166.93 -22.64,391.746 -8.47,210.582 -17.58,408.418 -20.24,439.598 l -4.82,56.73 -472.37,1.83 c -372.64,1.44 -473.84,-0.09 -479.32,-7.1 -3.82,-4.89 -56.95,-202.679 -118.08,-439.484 -61.09,-236.839 -112.96,-435.449 -115.24,-441.375 -3.62,-9.472 -46.8,-10.777 -349.03,-10.695 -189.7,0.086 -349.2,2.824 -354.46,6.176 z M 7844.81,1904.27 c -0.08,42.15 -77.91,1921.05 -93.22,2249.42 -6.76,144.77 -12.99,187.48 -22.68,154.94 -32.11,-107.97 -628.2,-2436.43 -625.04,-2441.53 2.88,-4.65 133.39,-7.15 372.69,-7.15 l 368.28,0 -0.05,44.32 0.02,0 z M 11449,297.379 c -6,15.73 529.3,4931.831 538.3,4942.911 10.1,12.52 753.6,12.96 761.4,0.48 2.8,-4.64 4.4,-26.18 3.4,-47.87 -0.9,-21.72 -50.9,-492.03 -111.1,-1045.19 -60.2,-553.14 -109.4,-1010.46 -109.4,-1016.28 0,-5.82 3.1,-9.5 7,-8.2 9.4,3.13 24.6,29.08 671.3,1140.36 307.4,528.4 564.5,966.31 571.4,973.12 11.5,11.53 39.2,12.44 380.5,12.44 202.5,0 373.1,-1.9 379.3,-4.26 9.4,-3.6 7,-11.77 -14.9,-51.41 -14.3,-25.93 -309.7,-520.92 -656.4,-1100 -551.7,-921.26 -630,-1055.56 -626.6,-1074.2 2.2,-11.74 177.6,-629.13 389.8,-1372.04 212.2,-742.885 384.4,-1353.103 382.8,-1356.037 -4.3,-7.281 -776.4,-6.558 -787.9,0.75 -5.1,3.211 -119.2,406.012 -253.5,895.047 -134.4,489.07 -250.5,908.35 -258,931.75 -7.5,23.4 -18.7,60.91 -25,83.31 -6.2,22.43 -15.2,40.69 -20,40.58 -8.3,-0.16 -262,-391.19 -279.5,-430.8 -4.7,-10.58 -44,-351.08 -87.3,-756.65 -43.4,-405.561 -81.8,-744.569 -85.3,-753.354 l -6.5,-15.953 -379.7,0 c -343.6,0 -380.1,1.113 -384.1,11.496 z M 1698,4044.09 c -164.82,15.88 -351.19,58.25 -483,109.85 -98.79,38.67 -269.07,127.27 -355.434,184.95 -219.242,146.44 -389.609,336.86 -507.066,566.71 -251.52,492.26 -169.227,1118.56 197.445,1502.61 117.934,123.53 275.836,231.57 410.66,281.01 228.365,83.73 520.145,83.81 704.085,0.14 82.87,-37.67 175.41,-144.8 209.92,-242.93 21.93,-62.4 27.41,-177.04 11.49,-240.16 -16.96,-67.31 -47.92,-125.6 -93.31,-175.79 -113.31,-125.19 -273.29,-185.49 -418.94,-157.84 -49.28,9.33 -109.35,32.93 -145.14,56.94 -41.21,27.67 -114.6,101.76 -146.07,147.37 -14.1,20.47 -30.75,37.23 -36.95,37.23 -17.89,0 -106.518,-62.63 -144.659,-102.2 -91.953,-95.44 -160.972,-238.58 -196.843,-408.31 -22.461,-106.27 -22.711,-291.29 -0.551,-394.84 48.383,-226.04 157.902,-416.81 309.123,-538.56 211.86,-170.54 468.27,-246.95 749.9,-223.49 324.88,27.09 620.18,166.4 846.07,399.25 87.45,90.12 147.77,174.08 200.56,279.13 111.95,222.79 156.99,435.94 136.27,645.13 -33.13,334.39 -126.97,605.46 -389.04,1123.83 -141.3,279.54 -178.53,359.15 -242.01,517.6 -109.46,273.21 -174.44,529.95 -199.17,787.03 -39.63,412.33 131.64,910.73 408.2,1187.75 201.88,202.24 443.2,308.65 740.91,326.71 298.94,18.12 707.27,-116.49 976.51,-321.86 232.74,-177.54 402.27,-426.75 468.52,-688.74 17.23,-68.11 18.92,-86.77 18.64,-206.06 -0.36,-154.55 -10.47,-203.38 -64.51,-311.2 -59.32,-118.38 -149.61,-191.77 -263.03,-213.83 -66.75,-12.98 -171.25,-5.62 -234.26,16.49 -101.7,35.67 -206.53,124.36 -255.03,215.72 -66.31,124.92 -68.11,285.54 -4.55,406.49 60.97,115.99 164.55,199.74 274.54,221.93 34.56,6.98 44.34,11.83 45.86,22.76 3.47,25.18 -63.34,130.96 -121.81,192.81 -152.88,161.77 -428.97,278.4 -658.94,278.4 -172.29,0 -295.27,-46.61 -411.34,-155.99 -95.67,-90.12 -148.74,-186.59 -191.03,-347.43 -19.94,-75.8 -21.47,-90.23 -21.47,-205.62 -0.03,-115.65 1.44,-129.64 21.58,-205.97 46.48,-176.36 122.67,-347.38 402.57,-903.67 279.94,-556.4 325.33,-660.18 396.73,-906.71 102.59,-354.16 125.47,-657.71 74.75,-991.38 -40.63,-267.19 -142.66,-518.87 -320.33,-790.05 -278.83,-425.53 -731.81,-697.1 -1282.04,-768.53 -81.45,-10.59 -335.29,-14.63 -417.81,-6.68 z m 7249.39,1528.34 c -11.68,1.64 -46.72,6.43 -77.82,10.64 -67.63,9.16 -154.46,35.62 -212.88,64.81 -197.72,98.9 -361.36,336.57 -421.65,612.49 -7.38,33.7 -16.85,64.72 -21.05,68.9 -5.46,5.49 -44.46,-28.91 -137,-120.78 -194.34,-193.04 -304.77,-285.11 -492.94,-411 -233.98,-156.54 -412.38,-218.1 -632.6,-218.36 -94.05,-0.11 -117.15,2.16 -160.39,15.68 -64.22,20.1 -113.78,53.23 -141.31,94.45 -44.01,65.8 -68.46,189.08 -61.45,309.7 2.57,44.68 1.21,58.5 -5.74,58.5 -5.01,0 -39.72,-29.56 -77.13,-65.7 -147.24,-142.17 -326.05,-273.76 -463.04,-340.78 -237.89,-116.35 -439.36,-93.34 -602.24,68.88 -80.62,80.27 -142.28,196.03 -169.4,318.1 -5.81,26.2 -12.65,40.77 -19.1,40.77 -5.51,0 -47.31,-35.04 -92.82,-77.83 -152.47,-143.39 -346.15,-284.64 -472.76,-344.77 -223.17,-106.02 -473.5,-106.6 -549.78,-1.3 -64.22,88.65 -72.22,227.28 -24.15,417.92 23.63,93.69 167.82,502.47 322.23,913.55 42.43,112.97 195.49,534.18 354.24,974.92 42.13,116.99 107.66,302.07 145.6,411.24 37.95,109.22 72.63,200.89 77.06,203.75 11.27,7.28 477.91,6.78 482.42,-0.51 2.02,-3.27 -32.79,-115.41 -77.36,-249.21 -44.56,-133.8 -79.35,-245.97 -77.3,-249.3 2.08,-3.35 98.74,-6.07 214.87,-6.07 116.11,0 212.9,-1.8 215.12,-4.01 3.63,-3.63 -91.43,-299.48 -98.93,-307.97 -1.75,-1.93 -102.56,-5.11 -224.07,-7.09 l -220.88,-3.54 -8.75,-18.25 c -12.63,-26.37 -516.44,-1506.87 -537.48,-1579.41 -20.2,-69.71 -22.41,-108.96 -6.87,-121.86 27.3,-22.66 136.29,14.26 230.16,77.99 65.92,44.79 159.94,125.19 261.98,224.06 77.47,75.06 92.95,93.57 96.36,115.31 47.8,303.78 162.44,599.58 329.56,850.38 272.82,409.35 611.38,672.28 947.7,735.93 80.13,15.17 214.41,10.33 296.66,-10.7 89.72,-22.93 177.32,-69.91 240.67,-129.06 29.9,-27.95 64.05,-64.87 75.88,-82.04 12.54,-18.25 26.04,-30.33 32.4,-29.05 6.68,1.32 19.56,26.97 33.13,65.97 12.19,35.1 31.99,79.76 44.01,99.26 l 21.8,35.45 320.26,1.86 c 176.12,1 320.19,-0.58 320.12,-3.55 -0.3,-15.76 -93.26,-299.12 -314.03,-957.28 -135.07,-402.66 -249.16,-752.6 -253.5,-777.64 -14.49,-83.15 9.57,-101.84 100.7,-78.27 129.92,33.6 266.02,130.84 495.44,353.99 68.32,66.44 156.73,152.03 196.48,190.14 59.41,57.03 73.06,74.03 76.75,95.72 46.39,272.81 155.16,521.89 313.75,718.54 116.93,144.99 315.52,296.52 463.45,353.68 163.55,63.18 266.03,81.21 459.68,80.8 133.67,-0.25 159.43,-2.19 209.16,-15.68 277.44,-75.28 440.09,-323.53 407.99,-622.54 -15.8,-146.91 -68.1,-278.46 -152.34,-383.24 -130.51,-162.41 -261.79,-202.18 -414.67,-125.72 -86.73,43.38 -166.44,148.49 -166.93,220.08 -0.18,27.29 4.01,33.71 60.4,92.18 144.13,149.53 209.64,307.71 175.4,423.59 -12.85,43.51 -70.63,98.71 -114.96,109.87 -92.21,23.22 -210.25,-41.68 -311.37,-171.19 -113.56,-145.41 -211.44,-339.92 -253.32,-503.31 -42.65,-166.45 -46.81,-424 -9.33,-579.64 17.4,-72.25 66.91,-168.5 108.41,-210.63 69.74,-70.85 156.92,-98.96 284.3,-91.64 152.89,8.75 305.67,68.29 486.52,189.61 95.59,64.09 162.75,122.97 338.39,296.6 188.9,186.71 158.1,149.64 516.3,622.1 l 76.2,100.54 -13.9,39.33 c -35.3,100.48 -31.7,207.28 11.4,336.41 55.9,167.48 145.5,314.18 265.1,434.14 152.3,152.67 300.3,215.84 422.8,180.47 71.2,-20.55 120.5,-56.36 146.8,-106.61 65,-123.88 -77.8,-419.63 -356.1,-737.4 -27.3,-31.18 -49.7,-62.06 -49.8,-68.59 -0.1,-7.09 17.7,-22.77 44.1,-38.78 188.4,-114.28 353.7,-281.51 464.8,-470.19 106.5,-180.88 150.8,-343.77 140.6,-515.76 -2.4,-39.77 -1.6,-74.01 1.8,-76.09 13.5,-8.3 138.4,98.99 412,353.86 95.6,88.99 192.9,176.13 216.3,193.65 100.1,74.92 194.4,97.46 235.6,56.28 17.3,-17.28 19.7,-24.98 19.7,-63.81 0,-67.39 -24.4,-109.49 -127.4,-220.35 -126.7,-136.19 -370,-372.22 -468.1,-453.9 -366.7,-305.44 -709.9,-502.04 -973.4,-557.67 -89.9,-19.01 -296.4,-27.01 -373.9,-14.49 -124.6,20.11 -208.1,61.79 -290.7,145.21 -131.2,132.42 -171.3,300.07 -106,442.99 34.3,75.11 90.6,116.85 192.9,143.02 67.9,17.37 167,18.42 207.5,2.19 38.5,-15.4 51.2,-41.63 54.9,-112.56 2.1,-42.43 -1.9,-79.93 -15.9,-148.9 -25.9,-126.9 -30.1,-185.89 -15.1,-214.7 32.7,-63.32 157.5,-66.53 228.3,-5.91 34.9,29.84 67.5,89.22 88.3,160.4 19.5,67.27 27.2,267.85 14.3,373.93 -25.4,208.26 -85.3,415.9 -176.9,613.85 -22.8,49.24 -31.8,62.07 -42.1,60.27 -14.3,-2.47 -45.1,-39.56 -237.7,-285.89 -263.9,-337.48 -458.9,-550 -667.57,-727.43 -278.98,-237.22 -562.38,-395.54 -790.58,-441.63 -55.59,-11.21 -179.72,-19.47 -216.26,-14.37 z M 6102.3,6039.18 c 212.66,75.05 544.68,464.59 749.86,879.76 108.08,218.69 141.04,317.52 147.02,440.88 4.26,87.63 -2,123.99 -31.77,184.81 -33.05,67.48 -92.73,109.13 -175.21,122.32 -170.15,27.16 -353.5,-110.07 -533.08,-399 -159.98,-257.36 -347.4,-753 -378.65,-1001.19 -17.03,-135.24 -0.96,-196.78 59.11,-226.72 46.92,-23.38 98.19,-23.66 162.72,-0.86 z"
         style="fill:#c24545;fill-opacity:1;fill-rule:nonzero;stroke:none;stroke-width:31.76493945;stroke-miterlimit:4;stroke-dasharray:none"
         id="path3373"
         inkscape:connector-curvature="0" /><path
         d="m 1698,4044.09 c -164.82,15.88 -351.19,58.25 -483,109.85 -98.79,38.67 -269.07,127.27 -355.434,184.95 -219.242,146.44 -389.609,336.86 -507.066,566.71 -251.52,492.26 -169.227,1118.56 197.445,1502.61 117.934,123.53 275.836,231.57 410.66,281.01 228.365,83.73 520.145,83.81 704.085,0.14 82.87,-37.67 175.41,-144.8 209.92,-242.93 21.93,-62.4 27.41,-177.04 11.49,-240.16 -16.96,-67.31 -47.92,-125.6 -93.31,-175.79 -113.31,-125.19 -273.29,-185.49 -418.94,-157.84 -49.28,9.33 -109.35,32.93 -145.14,56.94 -41.21,27.67 -114.6,101.76 -146.07,147.37 -14.1,20.47 -30.75,37.23 -36.95,37.23 -17.89,0 -106.518,-62.63 -144.659,-102.2 -91.953,-95.44 -160.972,-238.58 -196.843,-408.31 -22.461,-106.27 -22.711,-291.29 -0.551,-394.84 48.383,-226.04 157.902,-416.81 309.123,-538.56 211.86,-170.54 468.27,-246.95 749.9,-223.49 324.88,27.09 620.18,166.4 846.07,399.25 87.45,90.12 147.77,174.08 200.56,279.13 111.95,222.79 156.99,435.94 136.27,645.13 -33.13,334.39 -126.97,605.46 -389.04,1123.83 -141.3,279.54 -178.53,359.15 -242.01,517.6 -109.46,273.21 -174.44,529.95 -199.17,787.03 -39.63,412.33 131.64,910.73 408.2,1187.75 201.88,202.24 443.2,308.65 740.91,326.71 298.94,18.12 707.27,-116.49 976.51,-321.86 232.74,-177.54 402.27,-426.75 468.52,-688.74 17.23,-68.11 18.92,-86.77 18.64,-206.06 -0.36,-154.55 -10.47,-203.38 -64.51,-311.2 -59.32,-118.38 -149.61,-191.77 -263.03,-213.83 -66.75,-12.98 -171.25,-5.62 -234.26,16.49 -101.7,35.67 -206.53,124.36 -255.03,215.72 -66.31,124.92 -68.11,285.54 -4.55,406.49 60.97,115.99 164.55,199.74 274.54,221.93 34.56,6.98 44.34,11.83 45.86,22.76 3.47,25.18 -63.34,130.96 -121.81,192.81 -152.88,161.77 -428.97,278.4 -658.94,278.4 -172.29,0 -295.27,-46.61 -411.34,-155.99 -95.67,-90.12 -148.74,-186.59 -191.03,-347.43 -19.94,-75.8 -21.47,-90.23 -21.47,-205.62 -0.03,-115.65 1.44,-129.64 21.58,-205.97 46.48,-176.36 122.67,-347.38 402.57,-903.67 279.94,-556.4 325.33,-660.18 396.73,-906.71 102.59,-354.16 125.47,-657.71 74.75,-991.38 -40.63,-267.19 -142.66,-518.87 -320.33,-790.05 -278.83,-425.53 -731.81,-697.1 -1282.04,-768.53 -81.45,-10.59 -335.29,-14.63 -417.81,-6.68 z m 7249.39,1528.34 c -11.68,1.64 -46.72,6.43 -77.82,10.64 -67.63,9.16 -154.46,35.62 -212.88,64.81 -197.72,98.9 -361.36,336.57 -421.65,612.49 -7.38,33.7 -16.85,64.72 -21.05,68.9 -5.46,5.49 -44.46,-28.91 -137,-120.78 -194.34,-193.04 -304.77,-285.11 -492.94,-411 -233.98,-156.54 -412.38,-218.1 -632.6,-218.36 -94.05,-0.11 -117.15,2.16 -160.39,15.68 -64.22,20.1 -113.78,53.23 -141.31,94.45 -44.01,65.8 -68.46,189.08 -61.45,309.7 2.57,44.68 1.21,58.5 -5.74,58.5 -5.01,0 -39.72,-29.56 -77.13,-65.7 -147.24,-142.17 -326.05,-273.76 -463.04,-340.78 -237.89,-116.35 -439.36,-93.34 -602.24,68.88 -80.62,80.27 -142.28,196.03 -169.4,318.1 -5.81,26.2 -12.65,40.77 -19.1,40.77 -5.51,0 -47.31,-35.04 -92.82,-77.83 -152.47,-143.39 -346.15,-284.64 -472.76,-344.77 -223.17,-106.02 -473.5,-106.6 -549.78,-1.3 -64.22,88.65 -72.22,227.28 -24.15,417.92 23.63,93.69 167.82,502.47 322.23,913.55 42.43,112.97 195.49,534.18 354.24,974.92 42.13,116.99 107.66,302.07 145.6,411.24 37.95,109.22 72.63,200.89 77.06,203.75 11.27,7.28 477.91,6.78 482.42,-0.51 2.02,-3.27 -32.79,-115.41 -77.36,-249.21 -44.56,-133.8 -79.35,-245.97 -77.3,-249.3 2.08,-3.35 98.74,-6.07 214.87,-6.07 116.11,0 212.9,-1.8 215.12,-4.01 3.63,-3.63 -91.43,-299.48 -98.93,-307.97 -1.75,-1.93 -102.56,-5.11 -224.07,-7.09 l -220.88,-3.54 -8.75,-18.25 c -12.63,-26.37 -516.44,-1506.87 -537.48,-1579.41 -20.2,-69.71 -22.41,-108.96 -6.87,-121.86 27.3,-22.66 136.29,14.26 230.16,77.99 65.92,44.79 159.94,125.19 261.98,224.06 77.47,75.06 92.95,93.57 96.36,115.31 47.8,303.78 162.44,599.58 329.56,850.38 272.82,409.35 611.38,672.28 947.7,735.93 80.13,15.17 214.41,10.33 296.66,-10.7 89.72,-22.93 177.32,-69.91 240.67,-129.06 29.9,-27.95 64.05,-64.87 75.88,-82.04 12.54,-18.25 26.04,-30.33 32.4,-29.05 6.68,1.32 19.56,26.97 33.13,65.97 12.19,35.1 31.99,79.76 44.01,99.26 l 21.8,35.45 320.26,1.86 c 176.12,1 320.19,-0.58 320.12,-3.55 -0.3,-15.76 -93.26,-299.12 -314.03,-957.28 -135.07,-402.66 -249.16,-752.6 -253.5,-777.64 -14.49,-83.15 9.57,-101.84 100.7,-78.27 129.92,33.6 266.02,130.84 495.44,353.99 68.32,66.44 156.73,152.03 196.48,190.14 59.41,57.03 73.06,74.03 76.75,95.72 46.39,272.81 155.16,521.89 313.75,718.54 116.93,144.99 315.52,296.52 463.45,353.68 163.55,63.18 266.03,81.21 459.68,80.8 133.67,-0.25 159.43,-2.19 209.16,-15.68 277.44,-75.28 440.09,-323.53 407.99,-622.54 -15.8,-146.91 -68.1,-278.46 -152.34,-383.24 -130.51,-162.41 -261.79,-202.18 -414.67,-125.72 -86.73,43.38 -166.44,148.49 -166.93,220.08 -0.18,27.29 4.01,33.71 60.4,92.18 144.13,149.53 209.64,307.71 175.4,423.59 -12.85,43.51 -70.63,98.71 -114.96,109.87 -92.21,23.22 -210.25,-41.68 -311.37,-171.19 -113.56,-145.41 -211.44,-339.92 -253.32,-503.31 -42.65,-166.45 -46.81,-424 -9.33,-579.64 17.4,-72.25 66.91,-168.5 108.41,-210.63 69.74,-70.85 156.92,-98.96 284.3,-91.64 152.89,8.75 305.67,68.29 486.52,189.61 95.59,64.09 162.75,122.97 338.39,296.6 188.9,186.71 158.1,149.64 516.3,622.1 l 76.2,100.54 -13.9,39.33 c -35.3,100.48 -31.7,207.28 11.4,336.41 55.9,167.48 145.5,314.18 265.1,434.14 152.3,152.67 300.3,215.84 422.8,180.47 71.2,-20.55 120.5,-56.36 146.8,-106.61 65,-123.88 -77.8,-419.63 -356.1,-737.4 -27.3,-31.18 -49.7,-62.06 -49.8,-68.59 -0.1,-7.09 17.7,-22.77 44.1,-38.78 188.4,-114.28 353.7,-281.51 464.8,-470.19 106.5,-180.88 150.8,-343.77 140.6,-515.76 -2.4,-39.77 -1.6,-74.01 1.8,-76.09 13.5,-8.3 138.4,98.99 412,353.86 95.6,88.99 192.9,176.13 216.3,193.65 100.1,74.92 194.4,97.46 235.6,56.28 17.3,-17.28 19.7,-24.98 19.7,-63.81 0,-67.39 -24.4,-109.49 -127.4,-220.35 -126.7,-136.19 -370,-372.22 -468.1,-453.9 -366.7,-305.44 -709.9,-502.04 -973.4,-557.67 -89.9,-19.01 -296.4,-27.01 -373.9,-14.49 -124.6,20.11 -208.1,61.79 -290.7,145.21 -131.2,132.42 -171.3,300.07 -106,442.99 34.3,75.11 90.6,116.85 192.9,143.02 67.9,17.37 167,18.42 207.5,2.19 38.5,-15.4 51.2,-41.63 54.9,-112.56 2.1,-42.43 -1.9,-79.93 -15.9,-148.9 -25.9,-126.9 -30.1,-185.89 -15.1,-214.7 32.7,-63.32 157.5,-66.53 228.3,-5.91 34.9,29.84 67.5,89.22 88.3,160.4 19.5,67.27 27.2,267.85 14.3,373.93 -25.4,208.26 -85.3,415.9 -176.9,613.85 -22.8,49.24 -31.8,62.07 -42.1,60.27 -14.3,-2.47 -45.1,-39.56 -237.7,-285.89 -263.9,-337.48 -458.9,-550 -667.57,-727.43 -278.98,-237.22 -562.38,-395.54 -790.58,-441.63 -55.59,-11.21 -179.72,-19.47 -216.26,-14.37 z M 6102.3,6039.18 c 212.66,75.05 544.68,464.59 749.86,879.76 108.08,218.69 141.04,317.52 147.02,440.88 4.26,87.63 -2,123.99 -31.77,184.81 -33.05,67.48 -92.73,109.13 -175.21,122.32 -170.15,27.16 -353.5,-110.07 -533.08,-399 -159.98,-257.36 -347.4,-753 -378.65,-1001.19 -17.03,-135.24 -0.96,-196.78 59.11,-226.72 46.92,-23.38 98.19,-23.66 162.72,-0.86 z"
         style="fill:#376983;fill-opacity:1;fill-rule:nonzero;stroke:none;stroke-width:31.76493945;stroke-miterlimit:4;stroke-dasharray:none"
         id="path3375"
         inkscape:connector-curvature="0" /></g></g></svg>