<?xml version="1.0" encoding="UTF-8" standalone="no"?>
<!-- Created with Inkscape (http://www.inkscape.org/) -->

<svg
   xmlns:dc="http://purl.org/dc/elements/1.1/"
   xmlns:cc="http://creativecommons.org/ns#"
   xmlns:rdf="http://www.w3.org/1999/02/22-rdf-syntax-ns#"
   xmlns:svg="http://www.w3.org/2000/svg"
   xmlns="http://www.w3.org/2000/svg"
   xmlns:sodipodi="http://sodipodi.sourceforge.net/DTD/sodipodi-0.dtd"
   xmlns:inkscape="http://www.inkscape.org/namespaces/inkscape"
   width="1550"
   height="1450"
   viewBox="0 0 1550 1450"
   id="svg4144"
   version="1.1"
   inkscape:version="0.91 r13725"
   sodipodi:docname="stacs2.svg"
   inkscape:export-filename="/cs/home/gf38/Pictures/stacs3.png"
   inkscape:export-xdpi="900"
   inkscape:export-ydpi="900">
  <defs
     id="defs4146" />
  <sodipodi:namedview
     id="base"
     pagecolor="#ffffff"
     bordercolor="#666666"
     borderopacity="1.0"
     inkscape:pageopacity="0.0"
     inkscape:pageshadow="2"
     inkscape:zoom="0.24748738"
     inkscape:cx="1314.1721"
     inkscape:cy="1213.1117"
     inkscape:document-units="px"
     inkscape:current-layer="g4989"
     showgrid="true"
     inkscape:window-width="1600"
     inkscape:window-height="843"
     inkscape:window-x="0"
     inkscape:window-y="27"
     inkscape:window-maximized="1"
     units="px"
     inkscape:snap-bbox="true"
     inkscape:bbox-nodes="true">
    <inkscape:grid
       type="xygrid"
       id="grid4711"
       dotted="true"
       spacingx="10"
       spacingy="10"
       visible="false" />
  </sodipodi:namedview>
  <metadata
     id="metadata4149">
    <rdf:RDF>
      <cc:Work
         rdf:about="">
        <dc:format>image/svg+xml</dc:format>
        <dc:type
           rdf:resource="http://purl.org/dc/dcmitype/StillImage" />
        <dc:title />
      </cc:Work>
    </rdf:RDF>
  </metadata>
  <g
     inkscape:groupmode="layer"
     id="layer4"
     inkscape:label="background"
     transform="translate(0,-100)"
     style="display:none"
     sodipodi:insensitive="true">
    <rect
       style="fill:#ffffff;fill-opacity:1;fill-rule:evenodd;stroke:#000000;stroke-width:0;stroke-linecap:butt;stroke-linejoin:miter;stroke-miterlimit:4;stroke-dasharray:none;stroke-opacity:1"
       id="rect10447"
       width="2250"
       height="1800"
       x="-350"
       y="-49.999996" />
  </g>
  <g
     inkscape:label="murray"
     inkscape:groupmode="layer"
     id="layer1"
     transform="translate(0,397.63784)"
     style="display:none"
     sodipodi:insensitive="true">
    <text
       xml:space="preserve"
       style="font-style:normal;font-variant:normal;font-weight:normal;font-stretch:normal;font-size:10px;line-height:125%;font-family:'Khmer OS';-inkscape-font-specification:'Khmer OS';letter-spacing:0px;word-spacing:0px;fill:#000000;fill-opacity:1;stroke:none;stroke-width:1px;stroke-linecap:butt;stroke-linejoin:miter;stroke-opacity:1"
       x="2950"
       y="102.36216"
       id="text4679"
       sodipodi:linespacing="125%"><tspan
         sodipodi:role="line"
         id="tspan4681"
         x="2950"
         y="102.36216" /></text>
  </g>
  <g
     inkscape:groupmode="layer"
     id="layer5"
     inkscape:label="stacstext3"
     style="display:inline"
     transform="translate(0,-100)">
    <g
       id="g4989">
      <path
         style="display:inline;fill:#a8a4a2;fill-opacity:1;fill-rule:evenodd;stroke:#000000;stroke-width:0;stroke-linecap:butt;stroke-linejoin:miter;stroke-miterlimit:4;stroke-dasharray:none;stroke-opacity:1"
         d="M 50 50 L 50 100 L 50 150 L 50 200 L 100 200 L 150 200 L 200 200 L 250 200 L 250 250 L 200 250 L 150 250 L 100 250 L 50 250 L 50 300 L 50 350 L 50 400 L 100 400 L 150 400 L 200 400 L 250 400 L 250 450 L 200 450 L 150 450 L 100 450 L 50 450 L 50 500 L 100 500 L 150 500 L 200 500 L 250 500 L 300 500 L 300 450 L 300 400 L 300 350 L 250 350 L 200 350 L 150 350 L 100 350 L 100 300 L 150 300 L 200 300 L 250 300 L 300 300 L 300 250 L 300 200 L 300 150 L 250 150 L 200 150 L 150 150 L 100 150 L 100 100 L 150 100 L 200 100 L 250 100 L 300 100 L 350 100 L 400 100 L 450 100 L 500 100 L 550 100 L 550 150 L 500 150 L 450 150 L 400 150 L 350 150 L 350 200 L 350 250 L 350 300 L 400 300 L 450 300 L 500 300 L 550 300 L 550 350 L 500 350 L 450 350 L 400 350 L 350 350 L 350 400 L 350 450 L 350 500 L 400 500 L 450 500 L 500 500 L 550 500 L 600 500 L 650 500 L 700 500 L 750 500 L 800 500 L 850 500 L 900 500 L 900 450 L 900 400 L 900 350 L 850 350 L 800 350 L 750 350 L 700 350 L 700 300 L 750 300 L 800 300 L 850 300 L 900 300 L 900 250 L 900 200 L 900 150 L 850 150 L 800 150 L 750 150 L 700 150 L 700 100 L 750 100 L 800 100 L 850 100 L 900 100 L 950 100 L 1000 100 L 1050 100 L 1100 100 L 1150 100 L 1150 150 L 1100 150 L 1050 150 L 1000 150 L 950 150 L 950 200 L 950 250 L 950 300 L 1000 300 L 1050 300 L 1100 300 L 1150 300 L 1150 350 L 1100 350 L 1050 350 L 1000 350 L 950 350 L 950 400 L 950 450 L 950 500 L 1000 500 L 1050 500 L 1100 500 L 1150 500 L 1200 500 L 1250 500 L 1300 500 L 1350 500 L 1400 500 L 1450 500 L 1500 500 L 1500 450 L 1500 400 L 1500 350 L 1450 350 L 1400 350 L 1350 350 L 1300 350 L 1300 300 L 1350 300 L 1400 300 L 1450 300 L 1500 300 L 1500 250 L 1500 200 L 1500 150 L 1450 150 L 1400 150 L 1350 150 L 1300 150 L 1300 100 L 1350 100 L 1400 100 L 1450 100 L 1500 100 L 1500 50 L 1450 50 L 1400 50 L 1350 50 L 1300 50 L 1250 50 L 1250 100 L 1250 150 L 1250 200 L 1300 200 L 1350 200 L 1400 200 L 1450 200 L 1450 250 L 1400 250 L 1350 250 L 1300 250 L 1250 250 L 1250 300 L 1250 350 L 1250 400 L 1300 400 L 1350 400 L 1400 400 L 1450 400 L 1450 450 L 1400 450 L 1350 450 L 1300 450 L 1250 450 L 1200 450 L 1150 450 L 1100 450 L 1050 450 L 1000 450 L 1000 400 L 1050 400 L 1100 400 L 1150 400 L 1200 400 L 1200 350 L 1200 300 L 1200 250 L 1150 250 L 1100 250 L 1050 250 L 1000 250 L 1000 200 L 1050 200 L 1100 200 L 1150 200 L 1200 200 L 1200 150 L 1200 100 L 1200 50 L 1150 50 L 1100 50 L 1050 50 L 1000 50 L 950 50 L 900 50 L 850 50 L 800 50 L 750 50 L 700 50 L 650 50 L 650 100 L 650 150 L 650 200 L 700 200 L 750 200 L 800 200 L 850 200 L 850 250 L 800 250 L 750 250 L 700 250 L 650 250 L 650 300 L 650 350 L 650 400 L 700 400 L 750 400 L 800 400 L 850 400 L 850 450 L 800 450 L 750 450 L 700 450 L 650 450 L 600 450 L 550 450 L 500 450 L 450 450 L 400 450 L 400 400 L 450 400 L 500 400 L 550 400 L 600 400 L 600 350 L 600 300 L 600 250 L 550 250 L 500 250 L 450 250 L 400 250 L 400 200 L 450 200 L 500 200 L 550 200 L 600 200 L 600 150 L 600 100 L 600 50 L 550 50 L 500 50 L 450 50 L 400 50 L 350 50 L 300 50 L 250 50 L 200 50 L 150 50 L 100 50 L 50 50 z "
         transform="translate(0,100)"
         id="rect5321" />
      <path
         style="display:inline;fill:#a8a4a2;fill-opacity:1;fill-rule:evenodd;stroke:#000000;stroke-width:0;stroke-linecap:butt;stroke-linejoin:miter;stroke-miterlimit:4;stroke-dasharray:none;stroke-opacity:1"
         d="M 50 950 L 50 1000 L 100 1000 L 150 1000 L 200 1000 L 250 1000 L 250 1050 L 200 1050 L 150 1050 L 100 1050 L 50 1050 L 50 1100 L 50 1150 L 50 1200 L 100 1200 L 150 1200 L 200 1200 L 250 1200 L 250 1250 L 200 1250 L 150 1250 L 100 1250 L 50 1250 L 50 1300 L 50 1350 L 50 1400 L 100 1400 L 150 1400 L 200 1400 L 250 1400 L 300 1400 L 350 1400 L 400 1400 L 450 1400 L 500 1400 L 550 1400 L 600 1400 L 600 1350 L 600 1300 L 600 1250 L 550 1250 L 500 1250 L 450 1250 L 400 1250 L 400 1200 L 450 1200 L 500 1200 L 550 1200 L 600 1200 L 600 1150 L 600 1100 L 600 1050 L 550 1050 L 500 1050 L 450 1050 L 400 1050 L 400 1000 L 450 1000 L 500 1000 L 550 1000 L 600 1000 L 650 1000 L 700 1000 L 750 1000 L 800 1000 L 850 1000 L 850 1050 L 800 1050 L 750 1050 L 700 1050 L 650 1050 L 650 1100 L 650 1150 L 650 1200 L 700 1200 L 750 1200 L 800 1200 L 850 1200 L 850 1250 L 800 1250 L 750 1250 L 700 1250 L 650 1250 L 650 1300 L 650 1350 L 650 1400 L 700 1400 L 750 1400 L 800 1400 L 850 1400 L 900 1400 L 950 1400 L 1000 1400 L 1050 1400 L 1100 1400 L 1150 1400 L 1200 1400 L 1200 1350 L 1200 1300 L 1200 1250 L 1150 1250 L 1100 1250 L 1050 1250 L 1000 1250 L 1000 1200 L 1050 1200 L 1100 1200 L 1150 1200 L 1200 1200 L 1200 1150 L 1200 1100 L 1200 1050 L 1150 1050 L 1100 1050 L 1050 1050 L 1000 1050 L 1000 1000 L 1050 1000 L 1100 1000 L 1150 1000 L 1200 1000 L 1250 1000 L 1300 1000 L 1350 1000 L 1400 1000 L 1450 1000 L 1450 1050 L 1400 1050 L 1350 1050 L 1300 1050 L 1250 1050 L 1250 1100 L 1250 1150 L 1250 1200 L 1300 1200 L 1350 1200 L 1400 1200 L 1450 1200 L 1450 1250 L 1400 1250 L 1350 1250 L 1300 1250 L 1250 1250 L 1250 1300 L 1250 1350 L 1250 1400 L 1300 1400 L 1350 1400 L 1400 1400 L 1450 1400 L 1500 1400 L 1500 1350 L 1450 1350 L 1400 1350 L 1350 1350 L 1300 1350 L 1300 1300 L 1350 1300 L 1400 1300 L 1450 1300 L 1500 1300 L 1500 1250 L 1500 1200 L 1500 1150 L 1450 1150 L 1400 1150 L 1350 1150 L 1300 1150 L 1300 1100 L 1350 1100 L 1400 1100 L 1450 1100 L 1500 1100 L 1500 1050 L 1500 1000 L 1500 950 L 1450 950 L 1400 950 L 1350 950 L 1300 950 L 1250 950 L 1200 950 L 1150 950 L 1100 950 L 1050 950 L 1000 950 L 950 950 L 950 1000 L 950 1050 L 950 1100 L 1000 1100 L 1050 1100 L 1100 1100 L 1150 1100 L 1150 1150 L 1100 1150 L 1050 1150 L 1000 1150 L 950 1150 L 950 1200 L 950 1250 L 950 1300 L 1000 1300 L 1050 1300 L 1100 1300 L 1150 1300 L 1150 1350 L 1100 1350 L 1050 1350 L 1000 1350 L 950 1350 L 900 1350 L 850 1350 L 800 1350 L 750 1350 L 700 1350 L 700 1300 L 750 1300 L 800 1300 L 850 1300 L 900 1300 L 900 1250 L 900 1200 L 900 1150 L 850 1150 L 800 1150 L 750 1150 L 700 1150 L 700 1100 L 750 1100 L 800 1100 L 850 1100 L 900 1100 L 900 1050 L 900 1000 L 900 950 L 850 950 L 800 950 L 750 950 L 700 950 L 650 950 L 600 950 L 550 950 L 500 950 L 450 950 L 400 950 L 350 950 L 350 1000 L 350 1050 L 350 1100 L 400 1100 L 450 1100 L 500 1100 L 550 1100 L 550 1150 L 500 1150 L 450 1150 L 400 1150 L 350 1150 L 350 1200 L 350 1250 L 350 1300 L 400 1300 L 450 1300 L 500 1300 L 550 1300 L 550 1350 L 500 1350 L 450 1350 L 400 1350 L 350 1350 L 300 1350 L 250 1350 L 200 1350 L 150 1350 L 100 1350 L 100 1300 L 150 1300 L 200 1300 L 250 1300 L 300 1300 L 300 1250 L 300 1200 L 300 1150 L 250 1150 L 200 1150 L 150 1150 L 100 1150 L 100 1100 L 150 1100 L 200 1100 L 250 1100 L 300 1100 L 300 1050 L 300 1000 L 300 950 L 250 950 L 200 950 L 150 950 L 100 950 L 50 950 z "
         transform="translate(0,100)"
         id="rect5321-7-1" />
      <path
         style="display:inline;fill:#00529b;fill-opacity:1;fill-rule:evenodd;stroke:#000000;stroke-width:0;stroke-linecap:butt;stroke-linejoin:miter;stroke-miterlimit:4;stroke-dasharray:none;stroke-opacity:1"
         d="M 50 600 L 50 650 L 50 700 L 50 750 L 100 750 L 150 750 L 200 750 L 250 750 L 250 800 L 200 800 L 150 800 L 100 800 L 50 800 L 50 850 L 100 850 L 150 850 L 200 850 L 250 850 L 300 850 L 300 800 L 300 750 L 300 700 L 250 700 L 200 700 L 150 700 L 100 700 L 100 650 L 150 650 L 200 650 L 250 650 L 300 650 L 300 600 L 250 600 L 200 600 L 150 600 L 100 600 L 50 600 z "
         transform="translate(0,100)"
         id="rect5321-91-7" />
      <path
         style="display:inline;fill:#00529b;fill-opacity:1;fill-rule:evenodd;stroke:#000000;stroke-width:0;stroke-linecap:butt;stroke-linejoin:miter;stroke-miterlimit:4;stroke-dasharray:none;stroke-opacity:1"
         d="M 350 600 L 350 650 L 400 650 L 450 650 L 450 700 L 450 750 L 450 800 L 450 850 L 500 850 L 500 800 L 500 750 L 500 700 L 500 650 L 550 650 L 600 650 L 600 600 L 550 600 L 500 600 L 450 600 L 400 600 L 350 600 z "
         transform="translate(0,100)"
         id="rect5321-91-1" />
      <path
         style="display:inline;fill:#00529b;fill-opacity:1;fill-rule:evenodd;stroke:#000000;stroke-width:0;stroke-linecap:butt;stroke-linejoin:miter;stroke-miterlimit:4;stroke-dasharray:none;stroke-opacity:1"
         d="M 650 600 L 650 650 L 650 700 L 650 750 L 650 800 L 650 850 L 700 850 L 700 800 L 700 750 L 750 750 L 800 750 L 850 750 L 850 800 L 850 850 L 900 850 L 900 800 L 900 750 L 900 700 L 900 650 L 900 600 L 850 600 L 800 600 L 750 600 L 700 600 L 650 600 z M 700 650 L 750 650 L 800 650 L 850 650 L 850 700 L 800 700 L 750 700 L 700 700 L 700 650 z "
         transform="translate(0,100)"
         id="rect5321-91-78" />
      <path
         style="display:inline;fill:#00529b;fill-opacity:1;fill-rule:evenodd;stroke:#000000;stroke-width:0;stroke-linecap:butt;stroke-linejoin:miter;stroke-miterlimit:4;stroke-dasharray:none;stroke-opacity:1"
         d="M 950 600 L 950 650 L 950 700 L 950 750 L 950 800 L 950 850 L 1000 850 L 1050 850 L 1100 850 L 1150 850 L 1200 850 L 1200 800 L 1150 800 L 1100 800 L 1050 800 L 1000 800 L 1000 750 L 1000 700 L 1000 650 L 1050 650 L 1100 650 L 1150 650 L 1200 650 L 1200 600 L 1150 600 L 1100 600 L 1050 600 L 1000 600 L 950 600 z "
         transform="translate(0,100)"
         id="rect5321-91-79" />
      <path
         style="display:inline;fill:#00529b;fill-opacity:1;fill-rule:evenodd;stroke:#000000;stroke-width:0;stroke-linecap:butt;stroke-linejoin:miter;stroke-miterlimit:4;stroke-dasharray:none;stroke-opacity:1"
         d="M 1250 600 L 1250 650 L 1250 700 L 1250 750 L 1300 750 L 1350 750 L 1400 750 L 1450 750 L 1450 800 L 1400 800 L 1350 800 L 1300 800 L 1250 800 L 1250 850 L 1300 850 L 1350 850 L 1400 850 L 1450 850 L 1500 850 L 1500 800 L 1500 750 L 1500 700 L 1450 700 L 1400 700 L 1350 700 L 1300 700 L 1300 650 L 1350 650 L 1400 650 L 1450 650 L 1500 650 L 1500 600 L 1450 600 L 1400 600 L 1350 600 L 1300 600 L 1250 600 z "
         transform="translate(0,100)"
         id="rect5321-91-2" />
    </g>
  </g>
</svg>
